<svg width="15" height="15" viewBox="0 0 15 15" fill="none" xmlns="http://www.w3.org/2000/svg">
<path fill-rule="evenodd" clip-rule="evenodd" d="M8.4449 0.608735C8.0183 -0.107046 6.9817 -0.107046 6.55509 0.608736L0.161178 11.3368C-0.275824 12.07 0.252503 12.9999 1.10608 12.9999H13.8939C14.7475 12.9999 15.2758 12.07 14.8388 11.3368L8.4449 0.608735ZM7.4141 1.1207C7.45288 1.05563 7.54712 1.05563 7.5859 1.1207L13.9798 11.8488C14.0196 11.9154 13.9715 11.9999 13.8939 11.9999H1.10608C1.02849 11.9999 0.980454 11.9154 1.02018 11.8488L7.4141 1.1207ZM6.8269 4.48608C6.81221 4.1042 7.11783 3.7866 7.5 3.7866C7.88217 3.7866 8.18778 4.1042 8.1731 4.48608L8.01921 8.48698C8.00848 8.76597 7.7792 8.98661 7.5 8.98661C7.2208 8.98661 6.99151 8.76597 6.98078 8.48698L6.8269 4.48608ZM8.24989 10.476C8.24989 10.8902 7.9141 11.226 7.49989 11.226C7.08567 11.226 6.74989 10.8902 6.74989 10.476C6.74989 10.0618 7.08567 9.72596 7.49989 9.72596C7.9141 9.72596 8.24989 10.0618 8.24989 10.476Z" fill="#C52828"/>
</svg>
